<svg width="16" height="16" viewBox="0 0 16 16" xmlns="http://www.w3.org/2000/svg">
<g clip-path="url(#clip0_608_6)">
<path d="M3.29883 15.9082H5.52539C6.375 15.9082 6.82422 15.459 6.82422 14.5996V1.29883C6.82422 0.410156 6.375 0 5.52539 0H3.29883C2.44922 0 2 0.449219 2 1.29883V14.5996C2 15.459 2.44922 15.9082 3.29883 15.9082ZM10.3984 15.9082H12.6152C13.4746 15.9082 13.9141 15.459 13.9141 14.5996V1.29883C13.9141 0.410156 13.4746 0 12.6152 0H10.3984C9.53906 0 9.08984 0.449219 9.08984 1.29883V14.5996C9.08984 15.459 9.53906 15.9082 10.3984 15.9082Z" fill-opacity="0.85"/>
</g>
<defs>
<clipPath id="clip0_608_6">
<rect width="11.9141" height="15.9082" transform="translate(2)"/>
</clipPath>
</defs>
</svg>
